<?xml version="1.0" encoding="UTF-8"?>
<svg xmlns="http://www.w3.org/2000/svg" version="1.1" viewBox="0 0 841.9 595.3">
  <defs>
    <style>
      .cls-1 {
        fill: #61dafb;
      }
    </style>
  </defs>
  <!-- Generator: Adobe Illustrator 28.6.0, SVG Export Plug-In . SVG Version: 1.2.0 Build 709)  -->
  <g>
    <g id="Layer_1">
      <g>
        <path class="cls-1" d="M666.3,296.5c0-32.5-40.7-63.3-103.1-82.4,14.4-63.6,8-114.2-20.2-130.4-6.5-3.8-14.1-5.6-22.4-5.6v22.3c4.6,0,8.3.9,11.4,2.6,13.6,7.8,19.5,37.5,14.9,75.7-1.1,9.4-2.9,19.3-5.1,29.4-19.6-4.8-41-8.5-63.5-10.9-13.5-18.5-27.5-35.3-41.6-50,32.6-30.3,63.2-46.9,84-46.9v-22.3c-27.5,0-63.5,19.6-99.9,53.6-36.4-33.8-72.4-53.2-99.9-53.2v22.3c20.7,0,51.4,16.5,84,46.6-14,14.7-28,31.4-41.3,49.9-22.6,2.4-44,6.1-63.6,11-2.3-10-4-19.7-5.2-29-4.7-38.2,1.1-67.9,14.6-75.8,3-1.8,6.9-2.6,11.5-2.6v-22.3c-8.4,0-16,1.8-22.6,5.6-28.1,16.2-34.4,66.7-19.9,130.1-62.2,19.2-102.7,49.9-102.7,82.3s40.7,63.3,103.1,82.4c-14.4,63.6-8,114.2,20.2,130.4,6.5,3.8,14.1,5.6,22.5,5.6,27.5,0,63.5-19.6,99.9-53.6,36.4,33.8,72.4,53.2,99.9,53.2s16-1.8,22.6-5.6c28.1-16.2,34.4-66.7,19.9-130.1,62-19.1,102.5-49.9,102.5-82.3h0ZM536.1,229.8c-3.7,12.9-8.3,26.2-13.5,39.5-4.1-8-8.4-16-13.1-24-4.6-8-9.5-15.8-14.4-23.4,14.2,2.1,27.9,4.7,41,7.9h0ZM490.3,336.3c-7.8,13.5-15.8,26.3-24.1,38.2-14.9,1.3-30,2-45.2,2s-30.2-.7-45-1.9c-8.3-11.9-16.4-24.6-24.2-38-7.6-13.1-14.5-26.4-20.8-39.8,6.2-13.4,13.2-26.8,20.7-39.9,7.8-13.5,15.8-26.3,24.1-38.2,14.9-1.3,30-2,45.2-2s30.2.7,45,1.9c8.3,11.9,16.4,24.6,24.2,38,7.6,13.1,14.5,26.4,20.8,39.8-6.3,13.4-13.2,26.8-20.7,39.9h0ZM522.6,323.3c5.4,13.4,10,26.8,13.8,39.8-13.1,3.2-26.9,5.9-41.2,8,4.9-7.7,9.8-15.6,14.4-23.7,4.6-8,8.9-16.1,13-24.1h0ZM421.2,430c-9.3-9.6-18.6-20.3-27.8-32,9,.4,18.2.7,27.5.7s18.7-.2,27.8-.7c-9,11.7-18.3,22.4-27.5,32ZM346.8,371.1c-14.2-2.1-27.9-4.7-41-7.9,3.7-12.9,8.3-26.2,13.5-39.5,4.1,8,8.4,16,13.1,24s9.5,15.8,14.4,23.4ZM420.7,163c9.3,9.6,18.6,20.3,27.8,32-9-.4-18.2-.7-27.5-.7s-18.7.2-27.8.7c9-11.7,18.3-22.4,27.5-32ZM346.7,221.9c-4.9,7.7-9.8,15.6-14.4,23.7-4.6,8-8.9,16-13,24-5.4-13.4-10-26.8-13.8-39.8,13.1-3.1,26.9-5.8,41.2-7.9h0ZM256.2,347.1c-35.4-15.1-58.3-34.9-58.3-50.6s22.9-35.6,58.3-50.6c8.6-3.7,18-7,27.7-10.1,5.7,19.6,13.2,40,22.5,60.9-9.2,20.8-16.6,41.1-22.2,60.6-9.9-3.1-19.3-6.5-28-10.2h0ZM310,490c-13.6-7.8-19.5-37.5-14.9-75.7,1.1-9.4,2.9-19.3,5.1-29.4,19.6,4.8,41,8.5,63.5,10.9,13.5,18.5,27.5,35.3,41.6,50-32.6,30.3-63.2,46.9-84,46.9-4.5-.1-8.3-1-11.3-2.7h0ZM547.2,413.8c4.7,38.2-1.1,67.9-14.6,75.8-3,1.8-6.9,2.6-11.5,2.6-20.7,0-51.4-16.5-84-46.6,14-14.7,28-31.4,41.3-49.9,22.6-2.4,44-6.1,63.6-11,2.3,10.1,4.1,19.8,5.2,29.1ZM585.7,347.1c-8.6,3.7-18,7-27.7,10.1-5.7-19.6-13.2-40-22.5-60.9,9.2-20.8,16.6-41.1,22.2-60.6,9.9,3.1,19.3,6.5,28.1,10.2,35.4,15.1,58.3,34.9,58.3,50.6,0,15.7-23,35.6-58.4,50.6h0Z"/>
        <path class="cls-1" d="M520.5,78.1"/>
      </g>
    </g>
  </g>
</svg>