<svg width="20" height="18" viewBox="0 0 20 18" fill="none" xmlns="http://www.w3.org/2000/svg">
<path d="M16.444 5.72729C16.2311 5.65479 16.0165 5.58761 15.8002 5.52581C15.8366 5.37841 15.87 5.23279 15.8997 5.08973C16.387 2.74052 16.0684 0.847941 14.9802 0.224815C13.9369 -0.372555 12.2305 0.250339 10.5073 1.73965C10.3374 1.88669 10.1714 2.03797 10.0092 2.19334C9.90067 2.09003 9.79021 1.98872 9.67789 1.88946C7.8718 0.297042 6.06148 -0.374107 4.97445 0.250804C3.93203 0.850036 3.62336 2.62919 4.06211 4.85559C4.10576 5.0761 4.15505 5.29546 4.20992 5.51348C3.95367 5.58578 3.70641 5.66274 3.46977 5.74467C1.35227 6.4778 0 7.62669 0 8.81841C0 10.0492 1.45172 11.2838 3.65719 12.0323C3.83599 12.0928 4.01628 12.1488 4.19789 12.2003C4.13893 12.4351 4.08656 12.6715 4.04086 12.9092C3.62258 15.097 3.94922 16.8341 4.98883 17.4295C6.06258 18.0444 7.86477 17.4125 9.61953 15.8892C9.76181 15.7653 9.90097 15.638 10.0369 15.5072C10.2125 15.6755 10.3927 15.8388 10.5775 15.9971C12.2773 17.4495 13.9561 18.0361 14.9947 17.439C16.0674 16.8223 16.4161 14.9562 15.9634 12.6858C15.9278 12.5079 15.8878 12.3309 15.8435 12.155C15.9701 12.1177 16.0943 12.0794 16.2154 12.0395C18.5082 11.2852 20 10.0657 20 8.81841C20 7.62235 18.6041 6.4657 16.444 5.72729ZM15.9467 11.2343C15.8372 11.2702 15.7253 11.3049 15.6108 11.3386C15.3577 10.5429 15.0161 9.69677 14.598 8.82252C14.997 7.96913 15.3254 7.13382 15.5714 6.34328C15.776 6.40208 15.9745 6.46407 16.1659 6.52947C18.0167 7.16222 19.1456 8.0976 19.1456 8.81841C19.1456 9.58614 17.9264 10.5828 15.9467 11.2343ZM15.1253 12.8506C15.3255 13.8545 15.354 14.7622 15.2214 15.4718C15.1023 16.1094 14.8628 16.5345 14.5666 16.7048C13.9363 17.0671 12.5884 16.5962 11.1348 15.3539C10.9629 15.2068 10.7952 15.0549 10.6319 14.8985C11.1955 14.2865 11.7587 13.575 12.3084 12.7848C13.2752 12.6996 14.1887 12.5603 15.017 12.3701C15.0579 12.5337 15.094 12.6938 15.1253 12.8506ZM6.81844 16.6422C6.20266 16.8581 5.71219 16.8643 5.4157 16.6945C4.78484 16.3332 4.52258 14.9384 4.88031 13.0675C4.92284 12.8464 4.97153 12.6265 5.02633 12.4081C5.84555 12.5881 6.75234 12.7175 7.72148 12.7956C8.27492 13.5688 8.85438 14.2795 9.43836 14.9019C9.31425 15.0211 9.1872 15.1373 9.05734 15.2504C8.28133 15.9239 7.50375 16.4018 6.81844 16.6422ZM3.93359 11.2295C2.95836 10.8985 2.15297 10.4683 1.60094 9.99887C1.10484 9.57707 0.854453 9.15821 0.854453 8.81841C0.854453 8.0952 1.94016 7.17277 3.75102 6.54584C3.97078 6.46981 4.20078 6.39805 4.43945 6.33071C4.68977 7.1391 5.01805 7.98434 5.41422 8.83904C5.01289 9.70639 4.67992 10.5651 4.42719 11.3831C4.26142 11.3359 4.09684 11.2847 3.93359 11.2295ZM4.90063 4.6926C4.52477 2.78513 4.77437 1.34624 5.40258 0.985103C6.07164 0.600459 7.55117 1.14888 9.11063 2.52391C9.21232 2.61378 9.31236 2.70547 9.4107 2.79893C8.82961 3.41857 8.25547 4.12401 7.70695 4.89268C6.76633 4.97926 5.86594 5.11828 5.03812 5.30455C4.98711 5.10177 4.94126 4.89767 4.90063 4.6926ZM13.5277 6.80814C13.3322 6.47276 13.1294 6.14159 12.9195 5.81488C13.5577 5.89502 14.1691 6.00138 14.7432 6.1314C14.5709 6.68005 14.356 7.25361 14.1031 7.84167C13.9183 7.49339 13.7264 7.14881 13.5277 6.80814ZM10.0096 3.40538C10.4037 3.82936 10.7984 4.30268 11.1866 4.81626C10.3991 4.77932 9.61025 4.77917 8.82273 4.81579C9.21133 4.30694 9.60937 3.83425 10.0096 3.40538ZM6.46891 6.81388C6.27268 7.15181 6.08442 7.49424 5.9043 7.84089C5.65555 7.25493 5.44266 6.67873 5.26883 6.12233C5.83945 5.99556 6.44797 5.89191 7.08203 5.81325C6.86981 6.14196 6.66538 6.47565 6.46891 6.81388ZM7.10023 11.8838C6.44516 11.8112 5.8275 11.7129 5.25703 11.5896C5.43359 11.0232 5.65117 10.4348 5.90531 9.83626C6.08615 10.1832 6.27519 10.5258 6.47227 10.8639C6.67492 11.2115 6.88477 11.5519 7.10023 11.8838ZM10.0332 14.2912C9.6282 13.8573 9.2243 13.3773 8.82984 12.8611C9.21281 12.876 9.6032 12.8836 10 12.8836C10.4077 12.8836 10.8106 12.8745 11.2073 12.857C10.8178 13.3825 10.4246 13.8632 10.0332 14.2912ZM14.1112 9.80569C14.3785 10.4108 14.6038 10.9962 14.7827 11.5528C14.2029 11.6842 13.5768 11.79 12.9171 11.8686C13.1285 11.5359 13.3332 11.1989 13.5311 10.8581C13.7323 10.5116 13.9257 10.1607 14.1112 9.80569ZM12.791 10.4342C12.488 10.9568 12.1681 11.4695 11.8316 11.9714C11.222 12.0143 10.6111 12.0356 10 12.0353C9.37758 12.0353 8.77219 12.016 8.18922 11.9785C7.84391 11.4777 7.51782 10.9641 7.21164 10.4388C6.90686 9.91635 6.62228 9.38254 6.35836 8.83858C6.62162 8.29449 6.90541 7.76043 7.20914 7.23755C7.51271 6.7145 7.83612 6.20319 8.17883 5.70456C8.77359 5.65987 9.38352 5.6366 9.99992 5.6366C10.6191 5.6366 11.2299 5.6601 11.8245 5.7051C12.1638 6.20299 12.4852 6.71262 12.7882 7.23305C13.0929 7.7548 13.3804 8.28625 13.6504 8.82655C13.3832 9.37237 13.0966 9.90858 12.791 10.4342ZM14.5535 0.959735C15.2232 1.34329 15.4837 2.89001 15.0629 4.91836C15.0359 5.04786 15.006 5.17949 14.973 5.31324C14.1432 5.12301 13.2422 4.98158 12.2988 4.89369C11.7493 4.11656 11.1798 3.41004 10.6082 2.79839C10.758 2.65499 10.9114 2.5153 11.0682 2.37946C12.5448 1.10349 13.9248 0.599684 14.5535 0.959735Z" fill="#00D8FF"/>
<path d="M12.3047 9.09084C12.3047 7.84084 11.2747 6.81812 10.016 6.81812C8.7572 6.81812 7.72729 7.84084 7.72729 9.09084C7.72729 10.3408 8.7572 11.3636 10.016 11.3636C11.2747 11.3636 12.3047 10.3408 12.3047 9.09084ZM10.016 7.04539C11.1603 7.04539 12.0758 7.95448 12.0758 9.09084C12.0758 10.2272 11.1603 11.1363 10.016 11.1363C8.87163 11.1363 7.95616 10.2272 7.95616 9.09084C7.95616 7.95448 8.87163 7.04539 10.016 7.04539ZM9.55824 10.1893L8.87163 8.33327C8.98607 8.33327 9.1005 8.33327 9.1005 8.33327C9.21494 8.33327 9.17679 8.10599 9.1005 8.10599C9.1005 8.10599 8.79534 8.10599 8.60462 8.10599C8.4139 8.10599 8.52833 8.10599 8.49019 8.10599C8.83349 7.61357 9.36751 7.27266 10.016 7.27266C10.6644 7.27266 10.9314 7.46205 11.2366 7.76508C11.084 7.76508 10.8933 7.84084 10.8933 8.10599C10.8933 8.37115 10.9696 8.37115 11.084 8.52266C11.1603 8.6363 11.1985 8.78781 11.1985 9.01508C11.1985 9.24236 10.8933 10.0378 10.8933 10.0378L10.283 8.33327C10.3974 8.33327 10.4737 8.33327 10.4737 8.33327C10.5881 8.33327 10.55 8.06812 10.4737 8.10599C10.4737 8.10599 10.1686 8.10599 9.97783 8.10599C9.78711 8.10599 9.48195 8.10599 9.48195 8.10599C9.36751 8.10599 9.36751 8.33327 9.48195 8.33327H9.67267L9.93968 9.05296L9.55824 10.2272V10.1893ZM10.9314 10.6818L11.5418 9.09084C11.5418 9.09084 11.6943 8.71205 11.618 8.21963C11.7706 8.48478 11.8469 8.78781 11.8469 9.09084C11.8469 9.77266 11.5036 10.3408 10.9314 10.6818ZM8.33761 8.37115L9.21494 10.7575C8.60462 10.4545 8.18503 9.84842 8.18503 9.09084C8.18503 8.33327 8.22318 8.59842 8.33761 8.37115ZM10.0541 9.39387L10.5881 10.7954C10.3974 10.8711 10.2448 10.909 10.016 10.909C9.78711 10.909 9.71082 10.909 9.55824 10.8333L10.0541 9.39387Z" fill="#00D8FF"/>
</svg>
